HIERARCHY
ROOT Hips
{
	OFFSET 0.000000 0.000000 0.000000
	CHANNELS 6 Xposition Yposition Zposition Xrotation Yrotation Zrotation
	JOINT LeftUpLeg_virtual
	{
		OFFSET 0.000000 0.000000 0.000000
		CHANNELS 3 Xrotation Yrotation Zrotation
		JOINT LeftUpLeg
		{
			OFFSET 13.026900 -6.336304 -1.092800
			CHANNELS 3 Xrotation Yrotation Zrotation
			JOINT LeftLeg
			{
				OFFSET 0.524474 -46.096886 9.782700
				CHANNELS 3 Xrotation Yrotation Zrotation
				JOINT LeftFoot
				{
					OFFSET -0.524474 -53.427422 -12.948200
					CHANNELS 3 Xrotation Yrotation Zrotation
					JOINT LeftToeBase
					{
						OFFSET 0.192200 -14.009700 16.364100
						CHANNELS 3 Xrotation Yrotation Zrotation
						JOINT LeftToe_End
						{
							OFFSET -1.784700 -0.561700 9.474800
							CHANNELS 3 Xrotation Yrotation Zrotation
							End Site
							{
								OFFSET 0 0 0
							}
						}
					}
				}
			}
		}
	}
	JOINT RightUpLeg_virtual
	{
		OFFSET 0.000000 0.000000 0.000000
		CHANNELS 3 Xrotation Yrotation Zrotation
		JOINT RightUpLeg
		{
			OFFSET -12.883000 -6.336304 -1.092800
			CHANNELS 3 Xrotation Yrotation Zrotation
			JOINT RightLeg
			{
				OFFSET -0.524587 -46.096825 9.782800
				CHANNELS 3 Xrotation Yrotation Zrotation
				JOINT RightFoot
				{
					OFFSET 0.524587 -53.427383 -12.948300
					CHANNELS 3 Xrotation Yrotation Zrotation
					JOINT RightToeBase
					{
						OFFSET -0.192200 -14.009700 16.364100
						CHANNELS 3 Xrotation Yrotation Zrotation
						JOINT RightToe_End
						{
							OFFSET 1.784700 -0.561700 9.474800
							CHANNELS 3 Xrotation Yrotation Zrotation
							End Site
							{
								OFFSET 0 0 0
							}
						}
					}
				}
			}
		}
	}
	JOINT Spine_virtual
	{
		OFFSET 0.000000 0.000000 0.000000
		CHANNELS 3 Xrotation Yrotation Zrotation
		JOINT Spine
		{
			OFFSET 0.072000 7.257294 -0.789700
			CHANNELS 3 Xrotation Yrotation Zrotation
			JOINT Spine1
			{
				OFFSET 0.000000 12.508769 -0.658067
				CHANNELS 3 Xrotation Yrotation Zrotation
				JOINT Spine1_split
				{
					OFFSET 0.000000 12.508769 -0.658067
					CHANNELS 3 Xrotation Yrotation Zrotation
					JOINT Spine2
					{
						OFFSET 0.000000 12.508769 -0.658067
						CHANNELS 3 Xrotation Yrotation Zrotation
						JOINT Neck_virtual
						{
							OFFSET 0.000000 0.000000 0.000000
							CHANNELS 3 Xrotation Yrotation Zrotation
							JOINT Neck
							{
								OFFSET 0.000000 14.033295 7.520400
								CHANNELS 3 Xrotation Yrotation Zrotation
								JOINT Head
								{
									OFFSET 0.000000 8.198502 5.703100
									CHANNELS 3 Xrotation Yrotation Zrotation
									JOINT HeadTop_End
									{
										OFFSET 0.000000 17.760803 13.332701
										CHANNELS 3 Xrotation Yrotation Zrotation
										End Site
										{
											OFFSET 0 0 0
										}
									}
								}
							}
						}
						JOINT LeftShoulder_virtual
						{
							OFFSET 0.000000 0.000000 0.000000
							CHANNELS 3 Xrotation Yrotation Zrotation
							JOINT LeftShoulder
							{
								OFFSET 6.292450 5.785301 -0.669000
								CHANNELS 3 Xrotation Yrotation Zrotation
								JOINT LeftShoulder_split
								{
									OFFSET 6.292450 5.785301 -0.669000
									CHANNELS 3 Xrotation Yrotation Zrotation
									JOINT LeftArm
									{
										OFFSET 13.907140 -6.093903 1.965100
										CHANNELS 3 Xrotation Yrotation Zrotation
										JOINT LeftForeArm
										{
											OFFSET 34.140198 0.000000 0.000000
											CHANNELS 3 Xrotation Yrotation Zrotation
											JOINT LeftHand
											{
												OFFSET 40.960209 0.000000 0.000000
												CHANNELS 3 Xrotation Yrotation Zrotation
												End Site
												{
													OFFSET 0 0 0
												}
											}
										}
									}
								}
							}
						}
						JOINT RightShoulder_virtual
						{
							OFFSET 0.000000 0.000000 0.000000
							CHANNELS 3 Xrotation Yrotation Zrotation
							JOINT RightShoulder
							{
								OFFSET -6.292450 5.785301 -0.669000
								CHANNELS 3 Xrotation Yrotation Zrotation
								JOINT RightShoulder_split
								{
									OFFSET -6.292450 5.785301 -0.669000
									CHANNELS 3 Xrotation Yrotation Zrotation
									JOINT RightArm
									{
										OFFSET -13.907140 -6.093903 1.965100
										CHANNELS 3 Xrotation Yrotation Zrotation
										JOINT RightForeArm
										{
											OFFSET -34.140198 0.000000 0.000000
											CHANNELS 3 Xrotation Yrotation Zrotation
											JOINT RightHand
											{
												OFFSET -40.960209 0.000000 0.000000
												CHANNELS 3 Xrotation Yrotation Zrotation
												End Site
												{
													OFFSET 0 0 0
												}
											}
										}
									}
								}
							}
						}
					}
				}
			}
		}
	}
}
MOTION
Frames: 7
Frame Time: 0.03333333
2.176974 116.899445 -12.921375 0.000000 0.000000 0.000000 0.462685 4.607302 -0.594983 -19.440049 29.642055 16.072122 18.196611 2.481319 2.462891 -1.017222 11.535984 -17.593603 1.706819 -2.556407 0.509206 0.000000 0.000000 0.000000 0.889874 6.051274 -0.701762 -13.617164 -12.538830 -5.129934 13.029516 7.304594 -0.320356 -3.173801 1.152124 8.928563 3.292779 0.341120 -12.561699 0.000000 0.000000 0.000000 -0.762442 9.879618 -1.226761 -0.722380 -0.191845 1.817032 2.118729 0.190172 1.060929 0.077724 0.168049 -0.076014 0.000000 0.000000 0.000000 0.102215 2.547105 1.581685 -2.700689 6.835422 3.937333 -13.862365 -35.565335 -13.785031 0.000000 0.000000 0.000000 -0.593560 0.804449 0.586550 -1.714981 7.147040 -5.045959 -1.990496 -0.430633 -0.515796 59.459440 -60.363163 -8.291963 -2.643450 -28.027924 -1.713469 0.000000 0.000000 0.000000 1.023053 1.208825 1.147963 -2.066305 -0.647946 3.389851 -0.557728 -1.338331 0.732653 10.008468 36.007261 65.577766 -9.720984 22.304768 1.220449 0.000000 0.000000 0.000000 
2.202756 116.881790 -12.882816 0.000000 0.000000 0.000000 0.488576 4.605767 -0.625964 -19.347978 29.592744 16.026750 18.120780 2.541259 2.511180 -1.023252 11.614919 -17.553282 1.681257 -2.572154 0.532591 0.000000 0.000000 0.000000 0.919304 5.983295 -0.730180 -13.573709 -12.328814 -5.116261 13.059375 7.257796 -0.337364 -3.266753 1.089874 8.906198 3.384574 0.335023 -12.579732 0.000000 0.000000 0.000000 -0.727770 9.913885 -1.281632 -0.760469 -0.223689 1.914354 2.232289 0.204852 1.088971 0.117033 0.160539 -0.069434 0.000000 0.000000 0.000000 0.208430 2.555233 1.585422 -2.857248 6.958667 4.113986 -14.177978 -35.192768 -13.997600 0.000000 0.000000 0.000000 -0.484991 0.802839 0.594079 -1.679065 6.932591 -5.185574 -2.113377 -0.489771 -0.347289 59.832157 -60.663903 -8.154404 -2.471881 -28.045979 -1.538291 0.000000 0.000000 0.000000 1.126258 1.212869 1.153574 -2.033739 -0.726963 3.086538 -0.621163 -1.228693 0.486504 10.107129 35.585279 65.376406 -9.714267 22.295785 1.269514 0.000000 0.000000 0.000000 
2.284958 116.851593 -12.804279 0.000000 0.000000 0.000000 0.510453 4.514200 -0.575493 -19.074845 29.636778 15.876715 17.922538 2.635134 2.524309 -1.116355 11.705123 -17.233546 1.669139 -2.589440 0.562330 0.000000 0.000000 0.000000 0.953630 5.802044 -0.678688 -13.725438 -12.097046 -5.203034 13.276180 7.113204 -0.323502 -3.329611 0.972838 8.922960 3.569222 0.334980 -12.589365 0.000000 0.000000 0.000000 -0.826639 9.934077 -1.260369 -0.820770 -0.249343 2.010026 2.393572 0.196373 1.032461 0.118255 0.122319 -0.083931 0.000000 0.000000 0.000000 0.443398 2.556509 1.503565 -3.281589 7.181646 4.548906 -14.545190 -34.492913 -14.316147 0.000000 0.000000 0.000000 -0.322367 0.785699 0.533073 -1.665677 6.631730 -5.248667 -2.164851 -0.514792 -0.202548 60.383367 -61.005146 -7.957114 -2.540274 -28.204679 -1.465781 0.000000 0.000000 0.000000 1.242534 1.178313 1.104946 -1.984798 -0.912617 2.812383 -1.329374 -0.730124 0.608933 10.230449 35.517650 65.206621 -9.329904 21.575408 1.039083 0.000000 0.000000 0.000000 
2.408129 116.809052 -12.708889 0.000000 0.000000 0.000000 0.508046 4.345372 -0.419620 -18.671268 29.769492 15.620772 17.635871 2.742440 2.491488 -1.266695 11.812114 -16.699444 1.776771 -2.603294 0.579520 0.000000 0.000000 0.000000 0.990177 5.594016 -0.518372 -14.071375 -11.830542 -5.409304 13.678278 6.922837 -0.281119 -3.293748 0.831904 9.078047 3.766164 0.348183 -12.591435 0.000000 0.000000 0.000000 -1.054801 10.026085 -1.125464 -0.882057 -0.252635 2.073955 2.594743 0.178123 0.891281 0.088107 0.049910 -0.092206 0.000000 0.000000 0.000000 0.739020 2.561807 1.335938 -3.937715 7.436786 5.227336 -14.893011 -33.751554 -14.679678 0.000000 0.000000 0.000000 -0.130487 0.770358 0.396206 -1.683254 6.257633 -5.171455 -2.233727 -0.505188 -0.135606 61.035001 -61.271817 -7.675794 -2.792349 -28.538673 -1.474822 0.000000 0.000000 0.000000 1.373453 1.130767 0.989200 -1.930225 -1.069970 2.666567 -2.078878 -0.146517 1.010938 10.303601 35.970624 65.009392 -8.648969 20.513372 0.597419 0.000000 0.000000 0.000000 
2.555601 116.765594 -12.634418 0.000000 0.000000 0.000000 0.471144 4.196737 -0.166085 -18.226182 29.949072 15.281978 17.311637 2.817934 2.413238 -1.380596 11.917645 -16.104910 2.025390 -2.609851 0.588747 0.000000 0.000000 0.000000 0.995849 5.411183 -0.269387 -14.564675 -11.480101 -5.718743 14.192838 6.731787 -0.216615 -3.166278 0.671968 9.370435 3.912361 0.365846 -12.565084 0.000000 0.000000 0.000000 -1.366406 10.178215 -0.893282 -0.911455 -0.210915 2.107948 2.831968 0.168522 0.670367 0.051270 0.010145 -0.104694 0.000000 0.000000 0.000000 1.025013 2.586385 1.085186 -4.751072 7.659214 6.113342 -15.162380 -33.193524 -15.044045 0.000000 0.000000 0.000000 0.068215 0.767483 0.196584 -1.725892 5.794290 -4.923305 -2.393957 -0.534620 -0.295501 61.744493 -61.427006 -7.263596 -3.097327 -28.988894 -1.501983 0.000000 0.000000 0.000000 1.519328 1.112037 0.800845 -1.876639 -1.030609 2.724868 -2.572286 0.131736 1.476341 10.151434 37.059466 64.706145 -7.766390 19.383322 0.025566 0.000000 0.000000 0.000000 
2.721140 116.727013 -12.618664 0.000000 0.000000 0.000000 0.424186 4.049588 0.152654 -17.822344 30.128764 14.895898 16.989102 2.829688 2.296452 -1.382189 12.024051 -15.572413 2.312183 -2.611277 0.623098 0.000000 0.000000 0.000000 0.966290 5.281150 0.026125 -15.087534 -11.014570 -6.077488 14.702542 6.556434 -0.146387 -3.041833 0.492068 9.710016 4.034663 0.377380 -12.480996 0.000000 0.000000 0.000000 -1.638238 10.365643 -0.619883 -0.894352 -0.096116 2.113360 3.109132 0.191859 0.394978 0.030274 0.021803 -0.092293 0.000000 0.000000 0.000000 1.244569 2.639907 0.788886 -5.641450 7.822692 7.140068 -15.346945 -33.044599 -15.399715 0.000000 0.000000 0.000000 0.223991 0.794910 -0.032804 -1.782510 5.272830 -4.535815 -2.686059 -0.706278 -0.680046 62.505745 -61.576484 -6.640516 -3.324114 -29.377760 -1.496942 0.000000 0.000000 0.000000 1.647870 1.134358 0.556296 -1.814654 -0.641564 2.954812 -2.886916 -0.048156 1.890284 9.602275 38.768266 64.186361 -6.793280 18.121281 -0.627829 0.000000 0.000000 0.000000 
2.904546 116.710388 -12.675167 0.000000 0.000000 0.000000 0.357153 3.893778 0.476583 -17.499148 30.274936 14.496031 16.710222 2.780509 2.158703 -1.271426 12.197379 -15.187154 2.552505 -2.612904 0.693749 0.000000 0.000000 0.000000 0.896134 5.182927 0.303106 -15.528879 -10.456362 -6.399197 15.103604 6.365698 -0.080172 -2.957042 0.295902 9.944732 4.183779 0.368569 -12.307939 0.000000 0.000000 0.000000 -1.813805 10.539436 -0.370410 -0.838846 0.085220 2.082662 3.389759 0.240821 0.101770 0.044931 0.088679 -0.083106 0.000000 0.000000 0.000000 1.385048 2.709149 0.485626 -6.557248 7.952234 8.163014 -15.445933 -33.378632 -15.723012 0.000000 0.000000 0.000000 0.334344 0.845744 -0.252862 -1.838511 4.760760 -4.063211 -3.077159 -0.940119 -1.171390 63.373821 -61.826135 -5.738069 -3.382924 -29.592198 -1.429428 0.000000 0.000000 0.000000 1.760881 1.195707 0.295702 -1.758299 0.149611 3.213175 -2.736011 -0.576814 2.193020 8.400669 41.169928 63.430239 -5.888012 16.597151 -1.381200 0.000000 0.000000 0.000000 
